{
  "accessors": [
    {
      "bufferView": 2,
      "componentType": 5126,
      "count": 5241,
      "max": [
        9.688411712646484,
        11.780467987060547,
        24.92176055908203
      ],
      "min": [
        -10.1171293258667,
        -9.6063232421875,
        0.531557023525238
      ],
      "type": "VEC3"
    },
    {
      "bufferView": 2,
      "byteOffset": 62892,
      "componentType": 5126,
      "count": 5241,
      "max": [
        0.9998548626899719,
        0.9999760985374451,
        0.9992433786392212
      ],
      "min": [
        -0.999999463558197,
        -0.9998682141304016,
        -0.7384958267211914
      ],
      "type": "VEC3"
    },
    {
      "bufferView": 1,
      "componentType": 5126,
      "count": 5241,
      "max": [
        0.9992629885673523,
        0.8823239803314209
      ],
      "min": [
        0.0004879999905824661,
        0.0007939999923110008
      ],
      "type": "VEC2"
    },
    {
      "bufferView": 0,
      "componentType": 5125,
      "count": 14103,
      "type": "SCALAR"
    }
  ],
  "asset": {
    "extras": {
      "author": "zamorev4d (https://sketchfab.com/zamorev4d)",
      "license": "CC-BY-4.0 (http://creativecommons.org/licenses/by/4.0/)",
      "source": "https://sketchfab.com/3d-models/cupcake-cake-skanned-6-025bb35a6c0b488ea8ed6808600b7be8",
      "title": "Cupcake Cake Skanned 6"
    },
    "generator": "Sketchfab-12.65.0",
    "version": "2.0"
  },
  "bufferViews": [
    {
      "buffer": 0,
      "byteLength": 56412,
      "name": "floatBufferViews",
      "target": 34963
    },
    {
      "buffer": 0,
      "byteLength": 41928,
      "byteOffset": 56412,
      "byteStride": 8,
      "name": "floatBufferViews",
      "target": 34962
    },
    {
      "buffer": 0,
      "byteLength": 125784,
      "byteOffset": 98340,
      "byteStride": 12,
      "name": "floatBufferViews",
      "target": 34962
    }
  ],
  "buffers": [
    {
      "byteLength": 224124,
      "uri": "scene.bin"
    }
  ],
  "extensionsUsed": [
    "KHR_materials_unlit"
  ],
  "images": [
    {
      "uri": "textures/cupcake_16_5K_cupcake_16_5K_Material_u1_v1_baseColor.png"
    }
  ],
  "materials": [
    {
      "doubleSided": true,
      "extensions": {
        "KHR_materials_unlit": {}
      },
      "name": "cupcake_16_5K_cupcake_16_5K_Material_u1_v1",
      "pbrMetallicRoughness": {
        "baseColorTexture": {
          "index": 0
        },
        "metallicFactor": 0.0
      }
    }
  ],
  "meshes": [
    {
      "name": "Object_0",
      "primitives": [
        {
          "attributes": {
            "NORMAL": 1,
            "POSITION": 0,
            "TEXCOORD_0": 2
          },
          "indices": 3,
          "material": 0,
          "mode": 4
        }
      ]
    }
  ],
  "nodes": [
    {
      "children": [
        1
      ],
      "matrix": [
        1.0,
        0.0,
        0.0,
        0.0,
        0.0,
        2.220446049250313e-16,
        -1.0,
        0.0,
        0.0,
        1.0,
        2.220446049250313e-16,
        0.0,
        0.0,
        0.0,
        0.0,
        1.0
      ],
      "name": "Sketchfab_model"
    },
    {
      "children": [
        2
      ],
      "name": "d514ca0e677d4c82a6ed2510f62a789b.obj.cleaner.materialmerger.gles"
    },
    {
      "mesh": 0,
      "name": "Object_2"
    }
  ],
  "samplers": [
    {
      "magFilter": 9729,
      "minFilter": 9987,
      "wrapS": 10497,
      "wrapT": 10497
    }
  ],
  "scene": 0,
  "scenes": [
    {
      "name": "Sketchfab_Scene",
      "nodes": [
        0
      ]
    }
  ],
  "textures": [
    {
      "sampler": 0,
      "source": 0
    }
  ]
}
